<svg width="44" height="41" viewBox="0 0 44 41" fill="none" xmlns="http://www.w3.org/2000/svg">
<path d="M34.8333 0H9.16667C4.10483 0 0 3.82496 0 8.54167V32.4583C0 37.175 4.10483 41 9.16667 41H34.8333C39.897 41 44 37.175 44 32.4583V8.54167C44 3.82496 39.897 0 34.8333 0ZM34.5785 15.7799C34.9617 23.6673 28.6495 32.4618 17.4735 32.4618C14.0745 32.4618 10.912 31.5341 8.24817 29.942C11.4418 30.2922 14.6282 29.467 17.1582 27.6203C14.5237 27.5742 12.3017 25.953 11.5372 23.7253C12.4813 23.8927 13.409 23.8432 14.2542 23.6297C11.3593 23.0881 9.36283 20.6589 9.427 18.0605C10.2373 18.4807 11.1668 18.7336 12.1513 18.7626C9.47283 17.0936 8.71383 13.7965 10.2887 11.275C13.2568 14.6678 17.6917 16.9005 22.693 17.1346C21.8148 13.6274 24.673 10.25 28.5578 10.25C30.2867 10.25 31.8523 10.9299 32.9487 12.0215C34.32 11.7704 35.6088 11.304 36.773 10.6617C36.322 11.972 35.3687 13.0705 34.1275 13.764C35.3448 13.6274 36.5053 13.3267 37.5833 12.8808C36.7785 14.0015 35.7573 14.9889 34.5785 15.7799Z" fill="black"/>
</svg>
