<svg width="59" height="62" viewBox="0 0 59 62" fill="none" xmlns="http://www.w3.org/2000/svg">
<path d="M35.035 49.31C23.9696 49.31 15 40.0628 15 28.655C15 17.2472 23.9696 8 35.035 8C46.1004 8 55.07 17.2472 55.07 28.655C55.07 40.0628 46.1004 49.31 35.035 49.31ZM35.035 10.247C25.2271 10.247 17.1795 18.5436 17.1795 28.655C17.1795 38.7664 25.2271 47.063 35.035 47.063C44.8429 47.063 52.8905 38.7664 52.8905 28.655C52.8905 18.5436 44.8429 10.247 35.035 10.247Z" fill="#03080C"/>
<path d="M35.454 40.4949L23.9695 28.655L35.454 16.8151L36.963 18.4571L27.155 28.655L36.963 38.8528L35.454 40.4949Z" fill="#03080C"/>
<path d="M25.5623 27.4451H45.6811V29.8649H25.5623V27.4451Z" fill="#03080C"/>
</svg>
