<svg width="88" height="76" viewBox="0 0 88 76" fill="none" xmlns="http://www.w3.org/2000/svg">
<g clip-path="url(#clip0)">
<path d="M42.5425 55.29C42.6353 55.3694 42.7366 55.4409 42.845 55.5038L43.01 55.5809C43.1339 55.6496 43.2714 55.6979 43.4156 55.7234L43.5875 55.765C43.8508 55.8098 44.1217 55.8098 44.385 55.765L44.5638 55.7175L44.77 55.6641C44.8408 55.6358 44.9096 55.6041 44.9763 55.5691L45.1206 55.4978C45.2345 55.4319 45.3404 55.3563 45.4369 55.2722L63.9375 39.3122C64.1683 39.1571 64.3582 38.9614 64.4948 38.7381C64.6313 38.5148 64.7113 38.2689 64.7294 38.0169C64.7475 37.7648 64.7034 37.5123 64.5999 37.2761C64.4965 37.0399 64.336 36.8254 64.1293 36.6469C63.9225 36.4683 63.6742 36.3297 63.4007 36.2404C63.1272 36.151 62.8348 36.1129 62.543 36.1286C62.2511 36.1442 61.9665 36.2133 61.7079 36.3312C61.4493 36.4491 61.2227 36.6132 61.0431 36.8125L46.0625 49.7325V1.78125C46.0625 1.30883 45.8452 0.855765 45.4584 0.521716C45.0716 0.187667 44.547 0 44 0C43.453 0 42.9284 0.187667 42.5416 0.521716C42.1548 0.855765 41.9375 1.30883 41.9375 1.78125V49.7325L26.9569 36.8125C26.5601 36.5458 26.0641 36.4135 25.5623 36.4405C25.0605 36.4674 24.5874 36.6517 24.2318 36.9587C23.8763 37.2658 23.6629 37.6744 23.6317 38.1078C23.6005 38.5412 23.7537 38.9695 24.0625 39.3122L42.5425 55.29Z" fill="#FFFDFD"/>
<path d="M85.9375 52.25C85.3905 52.25 84.8659 52.4377 84.4791 52.7717C84.0923 53.1058 83.875 53.5588 83.875 54.0312V67.0938C83.875 68.511 83.2231 69.8702 82.0627 70.8724C80.9023 71.8745 79.3285 72.4375 77.6875 72.4375H10.3125C8.67147 72.4375 7.09766 71.8745 5.93728 70.8724C4.7769 69.8702 4.125 68.511 4.125 67.0938V54.0312C4.125 53.5588 3.9077 53.1058 3.52091 52.7717C3.13411 52.4377 2.60951 52.25 2.0625 52.25C1.51549 52.25 0.990886 52.4377 0.604092 52.7717C0.217298 53.1058 0 53.5588 0 54.0312L0 67.0938C0 69.4558 1.08649 71.7212 3.02046 73.3914C4.95443 75.0617 7.57745 76 10.3125 76H77.6875C80.4225 76 83.0456 75.0617 84.9795 73.3914C86.9135 71.7212 88 69.4558 88 67.0938V54.0312C88 53.5588 87.7827 53.1058 87.3959 52.7717C87.0091 52.4377 86.4845 52.25 85.9375 52.25Z" fill="#FFFDFD"/>
</g>
<defs>
<clipPath id="clip0">
<rect width="88" height="76" fill="white"/>
</clipPath>
</defs>
</svg>
