<svg width="499" height="416" viewBox="0 0 499 416" fill="none" xmlns="http://www.w3.org/2000/svg">
<path d="M364.055 142.014C401.572 161.041 443.644 188.254 449.272 219.893C454.899 251.531 423.814 287.816 386.297 317.241C348.781 346.889 304.832 369.677 252.845 376.314C200.589 383.173 140.563 373.66 115.373 344.234C90.1829 314.587 100.366 265.027 105.458 219.671C110.817 174.095 111.085 133.164 136.275 113.915C161.465 94.888 211.04 97.9855 252.309 104.844C293.577 111.924 326.538 122.986 364.055 142.014Z" fill="black"/>
<path d="M139.773 183.25C141.062 183.25 142.17 183.396 143.096 183.689C144.033 183.982 144.818 184.363 145.451 184.832C146.096 185.301 146.611 185.834 146.998 186.432C147.385 187.018 147.678 187.615 147.877 188.225C148.088 188.834 148.223 189.42 148.281 189.982C148.352 190.545 148.387 191.031 148.387 191.441C148.387 191.617 148.369 191.834 148.334 192.092C148.311 192.338 148.211 192.578 148.035 192.812C147.859 193.047 147.578 193.246 147.191 193.41C146.816 193.574 146.277 193.656 145.574 193.656C145.34 193.656 145.047 193.645 144.695 193.621C144.344 193.586 144.004 193.51 143.676 193.393C143.348 193.264 143.066 193.088 142.832 192.865C142.598 192.631 142.48 192.309 142.48 191.898C142.48 191.266 142.439 190.697 142.357 190.193C142.287 189.689 142.152 189.262 141.953 188.91C141.754 188.559 141.479 188.289 141.127 188.102C140.775 187.914 140.324 187.82 139.773 187.82C139.199 187.82 138.754 187.943 138.438 188.189C138.133 188.424 137.91 188.682 137.77 188.963C137.605 189.303 137.512 189.684 137.488 190.105V201.25C137.512 201.766 137.605 202.217 137.77 202.604C137.91 202.943 138.133 203.254 138.438 203.535C138.754 203.816 139.199 203.957 139.773 203.957C140.324 203.957 140.775 203.846 141.127 203.623C141.479 203.389 141.754 203.078 141.953 202.691C142.152 202.305 142.287 201.859 142.357 201.355C142.439 200.852 142.48 200.324 142.48 199.773C142.48 199.598 142.51 199.416 142.568 199.229C142.627 199.041 142.762 198.871 142.973 198.719C143.184 198.555 143.494 198.42 143.904 198.314C144.314 198.209 144.871 198.156 145.574 198.156C146.277 198.156 146.816 198.238 147.191 198.402C147.578 198.555 147.859 198.736 148.035 198.947C148.211 199.146 148.311 199.346 148.334 199.545C148.369 199.732 148.387 199.855 148.387 199.914C148.387 201.203 148.17 202.357 147.736 203.377C147.303 204.385 146.688 205.24 145.891 205.943C145.105 206.646 144.162 207.186 143.061 207.561C141.971 207.924 140.77 208.105 139.457 208.105C139.246 208.105 138.9 208.088 138.42 208.053C137.951 208.018 137.424 207.924 136.838 207.771C136.252 207.619 135.648 207.391 135.027 207.086C134.406 206.781 133.838 206.359 133.322 205.82C132.818 205.27 132.402 204.59 132.074 203.781C131.746 202.961 131.582 201.965 131.582 200.793V190.984C131.582 190.023 131.699 189.174 131.934 188.436C132.168 187.697 132.473 187.059 132.848 186.52C133.234 185.969 133.674 185.512 134.166 185.148C134.658 184.773 135.162 184.463 135.678 184.217C136.873 183.654 138.238 183.332 139.773 183.25ZM152.078 187.434C152.078 186.93 152.102 186.438 152.148 185.957C152.195 185.477 152.307 185.049 152.482 184.674C152.67 184.287 152.939 183.977 153.291 183.742C153.643 183.508 154.129 183.391 154.75 183.391C155.359 183.391 155.84 183.508 156.191 183.742C156.555 183.977 156.824 184.287 157 184.674C157.188 185.049 157.305 185.477 157.352 185.957C157.398 186.438 157.422 186.93 157.422 187.434V192.953H162.238V187.434C162.238 186.93 162.262 186.438 162.309 185.957C162.355 185.477 162.467 185.049 162.643 184.674C162.83 184.287 163.1 183.977 163.451 183.742C163.803 183.508 164.289 183.391 164.91 183.391C165.52 183.391 166 183.508 166.352 183.742C166.715 183.977 166.984 184.287 167.16 184.674C167.348 185.049 167.465 185.477 167.512 185.957C167.559 186.438 167.582 186.93 167.582 187.434V203.957C167.582 204.473 167.559 204.971 167.512 205.451C167.465 205.932 167.348 206.365 167.16 206.752C166.984 207.127 166.715 207.432 166.352 207.666C166 207.889 165.52 208 164.91 208C164.289 208 163.803 207.889 163.451 207.666C163.1 207.432 162.83 207.127 162.643 206.752C162.467 206.365 162.355 205.932 162.309 205.451C162.262 204.971 162.238 204.473 162.238 203.957V198.121H157.422V203.957C157.422 204.473 157.398 204.971 157.352 205.451C157.305 205.932 157.188 206.365 157 206.752C156.824 207.127 156.555 207.432 156.191 207.666C155.84 207.889 155.359 208 154.75 208C154.129 208 153.643 207.889 153.291 207.666C152.939 207.432 152.67 207.127 152.482 206.752C152.307 206.365 152.195 205.932 152.148 205.451C152.102 204.971 152.078 204.473 152.078 203.957V187.434ZM181.996 183.391C182.465 183.391 182.939 183.408 183.42 183.443C183.9 183.479 184.334 183.578 184.721 183.742C185.107 183.906 185.424 184.158 185.67 184.498C185.916 184.826 186.039 185.289 186.039 185.887C186.039 186.484 185.916 186.953 185.67 187.293C185.424 187.621 185.107 187.867 184.721 188.031C184.334 188.195 183.9 188.295 183.42 188.33C182.939 188.365 182.465 188.383 181.996 188.383H177.812V193.164H180.027C180.496 193.164 180.965 193.182 181.434 193.217C181.914 193.24 182.336 193.334 182.699 193.498C183.074 193.65 183.379 193.891 183.613 194.219C183.848 194.535 183.965 194.98 183.965 195.555C183.965 196.141 183.848 196.592 183.613 196.908C183.379 197.225 183.074 197.465 182.699 197.629C182.336 197.781 181.914 197.875 181.434 197.91C180.965 197.934 180.496 197.945 180.027 197.945H177.812V203.008H181.996C182.465 203.008 182.939 203.025 183.42 203.061C183.9 203.096 184.334 203.195 184.721 203.359C185.107 203.512 185.424 203.758 185.67 204.098C185.916 204.426 186.039 204.883 186.039 205.469C186.039 206.078 185.91 206.553 185.652 206.893C185.406 207.232 185.09 207.484 184.703 207.648C184.316 207.812 183.883 207.912 183.402 207.947C182.922 207.982 182.453 208 181.996 208H175.105C174.449 208 173.939 207.883 173.576 207.648C173.225 207.414 172.967 207.109 172.803 206.734C172.639 206.348 172.539 205.914 172.504 205.434C172.48 204.953 172.469 204.461 172.469 203.957V187.434C172.469 186.93 172.48 186.438 172.504 185.957C172.539 185.477 172.639 185.049 172.803 184.674C172.967 184.287 173.225 183.977 173.576 183.742C173.939 183.508 174.449 183.391 175.105 183.391H181.996ZM197.113 183.25C198.402 183.25 199.51 183.396 200.436 183.689C201.373 183.982 202.158 184.363 202.791 184.832C203.436 185.301 203.951 185.834 204.338 186.432C204.725 187.018 205.018 187.615 205.217 188.225C205.428 188.834 205.562 189.42 205.621 189.982C205.691 190.545 205.727 191.031 205.727 191.441C205.727 191.617 205.709 191.834 205.674 192.092C205.65 192.338 205.551 192.578 205.375 192.812C205.199 193.047 204.918 193.246 204.531 193.41C204.156 193.574 203.617 193.656 202.914 193.656C202.68 193.656 202.387 193.645 202.035 193.621C201.684 193.586 201.344 193.51 201.016 193.393C200.688 193.264 200.406 193.088 200.172 192.865C199.938 192.631 199.82 192.309 199.82 191.898C199.82 191.266 199.779 190.697 199.697 190.193C199.627 189.689 199.492 189.262 199.293 188.91C199.094 188.559 198.818 188.289 198.467 188.102C198.115 187.914 197.664 187.82 197.113 187.82C196.539 187.82 196.094 187.943 195.777 188.189C195.473 188.424 195.25 188.682 195.109 188.963C194.945 189.303 194.852 189.684 194.828 190.105V201.25C194.852 201.766 194.945 202.217 195.109 202.604C195.25 202.943 195.473 203.254 195.777 203.535C196.094 203.816 196.539 203.957 197.113 203.957C197.664 203.957 198.115 203.846 198.467 203.623C198.818 203.389 199.094 203.078 199.293 202.691C199.492 202.305 199.627 201.859 199.697 201.355C199.779 200.852 199.82 200.324 199.82 199.773C199.82 199.598 199.85 199.416 199.908 199.229C199.967 199.041 200.102 198.871 200.312 198.719C200.523 198.555 200.834 198.42 201.244 198.314C201.654 198.209 202.211 198.156 202.914 198.156C203.617 198.156 204.156 198.238 204.531 198.402C204.918 198.555 205.199 198.736 205.375 198.947C205.551 199.146 205.65 199.346 205.674 199.545C205.709 199.732 205.727 199.855 205.727 199.914C205.727 201.203 205.51 202.357 205.076 203.377C204.643 204.385 204.027 205.24 203.23 205.943C202.445 206.646 201.502 207.186 200.4 207.561C199.311 207.924 198.109 208.105 196.797 208.105C196.586 208.105 196.24 208.088 195.76 208.053C195.291 208.018 194.764 207.924 194.178 207.771C193.592 207.619 192.988 207.391 192.367 207.086C191.746 206.781 191.178 206.359 190.662 205.82C190.158 205.27 189.742 204.59 189.414 203.781C189.086 202.961 188.922 201.965 188.922 200.793V190.984C188.922 190.023 189.039 189.174 189.273 188.436C189.508 187.697 189.812 187.059 190.188 186.52C190.574 185.969 191.014 185.512 191.506 185.148C191.998 184.773 192.502 184.463 193.018 184.217C194.213 183.654 195.578 183.332 197.113 183.25ZM209.312 187.398C209.312 186.895 209.336 186.402 209.383 185.922C209.43 185.441 209.541 185.014 209.717 184.639C209.893 184.264 210.156 183.965 210.508 183.742C210.859 183.508 211.34 183.391 211.949 183.391C212.57 183.391 213.062 183.508 213.426 183.742C213.789 183.965 214.059 184.264 214.234 184.639C214.422 185.014 214.539 185.441 214.586 185.922C214.633 186.402 214.656 186.895 214.656 187.398V193.727H216.66C217.047 192.719 217.434 191.729 217.82 190.756C217.984 190.346 218.154 189.924 218.33 189.49C218.506 189.045 218.676 188.611 218.84 188.189C219.016 187.768 219.18 187.363 219.332 186.977C219.496 186.578 219.648 186.227 219.789 185.922C219.93 185.594 220.076 185.277 220.229 184.973C220.393 184.668 220.58 184.398 220.791 184.164C221.002 183.93 221.236 183.742 221.494 183.602C221.764 183.461 222.074 183.391 222.426 183.391C222.766 183.391 223.1 183.443 223.428 183.549C223.756 183.654 224.049 183.812 224.307 184.023C224.564 184.234 224.77 184.492 224.922 184.797C225.086 185.102 225.168 185.453 225.168 185.852C225.168 186.156 225.115 186.52 225.01 186.941C224.916 187.352 224.781 187.762 224.605 188.172L221.441 195.66C222.051 195.883 222.59 196.246 223.059 196.75C223.258 196.961 223.451 197.219 223.639 197.523C223.838 197.816 224.014 198.162 224.166 198.561C224.318 198.959 224.441 199.416 224.535 199.932C224.629 200.436 224.676 201.004 224.676 201.637V204.133C224.676 204.262 224.723 204.367 224.816 204.449C224.91 204.531 225.004 204.625 225.098 204.73C225.332 205 225.467 205.234 225.502 205.434C225.537 205.633 225.555 205.797 225.555 205.926C225.555 206.348 225.473 206.699 225.309 206.98C225.156 207.262 224.945 207.49 224.676 207.666C224.418 207.842 224.113 207.965 223.762 208.035C223.422 208.105 223.07 208.141 222.707 208.141C222.32 208.141 221.928 208.082 221.529 207.965C221.131 207.848 220.768 207.672 220.439 207.438C220.111 207.191 219.842 206.887 219.631 206.523C219.432 206.16 219.332 205.738 219.332 205.258V201.637C219.332 201.133 219.297 200.664 219.227 200.23C219.156 199.785 219.021 199.404 218.822 199.088C218.623 198.76 218.348 198.508 217.996 198.332C217.645 198.145 217.188 198.051 216.625 198.051H214.656V203.957C214.656 204.473 214.633 204.971 214.586 205.451C214.539 205.932 214.422 206.365 214.234 206.752C214.059 207.127 213.789 207.432 213.426 207.666C213.062 207.889 212.57 208 211.949 208C211.34 208 210.859 207.889 210.508 207.666C210.156 207.432 209.893 207.127 209.717 206.752C209.541 206.365 209.43 205.932 209.383 205.451C209.336 204.971 209.312 204.473 209.312 203.957V187.398ZM254.734 202.305C254.395 202.305 254.102 202.24 253.855 202.111C253.621 201.982 253.416 201.818 253.24 201.619C253.064 201.42 252.912 201.197 252.783 200.951C252.666 200.705 252.566 200.465 252.484 200.23L249.145 190.598H248.688V205.258C248.688 205.633 248.664 205.984 248.617 206.312C248.57 206.641 248.465 206.934 248.301 207.191C248.148 207.438 247.914 207.637 247.598 207.789C247.293 207.93 246.871 208 246.332 208C245.723 208 245.242 207.93 244.891 207.789C244.539 207.637 244.275 207.438 244.1 207.191C243.924 206.934 243.812 206.641 243.766 206.312C243.719 205.984 243.695 205.633 243.695 205.258V187.398C243.695 186.895 243.707 186.402 243.73 185.922C243.766 185.441 243.865 185.014 244.029 184.639C244.193 184.264 244.451 183.965 244.803 183.742C245.166 183.508 245.676 183.391 246.332 183.391H248.723C249.121 183.391 249.455 183.408 249.725 183.443C250.006 183.467 250.264 183.566 250.498 183.742C250.732 183.906 250.961 184.176 251.184 184.551C251.418 184.926 251.67 185.459 251.939 186.15C252.221 186.83 252.543 187.703 252.906 188.77C253.27 189.824 253.715 191.125 254.242 192.672L254.699 194.078H255.121L255.684 192.32C256.164 190.844 256.574 189.596 256.914 188.576C257.254 187.557 257.553 186.719 257.811 186.062C258.068 185.395 258.297 184.885 258.496 184.533C258.707 184.17 258.924 183.906 259.146 183.742C259.381 183.566 259.633 183.467 259.902 183.443C260.172 183.408 260.5 183.391 260.887 183.391H263.453C264.109 183.391 264.613 183.508 264.965 183.742C265.328 183.965 265.592 184.264 265.756 184.639C265.92 185.014 266.014 185.441 266.037 185.922C266.072 186.402 266.09 186.895 266.09 187.398V205.258C266.09 205.633 266.066 205.984 266.02 206.312C265.973 206.641 265.861 206.934 265.686 207.191C265.51 207.438 265.246 207.637 264.895 207.789C264.543 207.93 264.062 208 263.453 208C262.914 208 262.486 207.93 262.17 207.789C261.865 207.637 261.631 207.438 261.467 207.191C261.314 206.934 261.215 206.641 261.168 206.312C261.121 205.984 261.098 205.633 261.098 205.258V190.598H260.605L257.301 200.23C257.207 200.465 257.102 200.705 256.984 200.951C256.867 201.197 256.721 201.42 256.545 201.619C256.369 201.818 256.164 201.982 255.93 202.111C255.695 202.24 255.414 202.305 255.086 202.305H254.734ZM280.961 183.391C281.43 183.391 281.904 183.408 282.385 183.443C282.865 183.479 283.299 183.578 283.686 183.742C284.072 183.906 284.389 184.158 284.635 184.498C284.881 184.826 285.004 185.289 285.004 185.887C285.004 186.484 284.881 186.953 284.635 187.293C284.389 187.621 284.072 187.867 283.686 188.031C283.299 188.195 282.865 188.295 282.385 188.33C281.904 188.365 281.43 188.383 280.961 188.383H276.777V193.164H278.992C279.461 193.164 279.93 193.182 280.398 193.217C280.879 193.24 281.301 193.334 281.664 193.498C282.039 193.65 282.344 193.891 282.578 194.219C282.812 194.535 282.93 194.98 282.93 195.555C282.93 196.141 282.812 196.592 282.578 196.908C282.344 197.225 282.039 197.465 281.664 197.629C281.301 197.781 280.879 197.875 280.398 197.91C279.93 197.934 279.461 197.945 278.992 197.945H276.777V203.008H280.961C281.43 203.008 281.904 203.025 282.385 203.061C282.865 203.096 283.299 203.195 283.686 203.359C284.072 203.512 284.389 203.758 284.635 204.098C284.881 204.426 285.004 204.883 285.004 205.469C285.004 206.078 284.875 206.553 284.617 206.893C284.371 207.232 284.055 207.484 283.668 207.648C283.281 207.812 282.848 207.912 282.367 207.947C281.887 207.982 281.418 208 280.961 208H274.07C273.414 208 272.904 207.883 272.541 207.648C272.189 207.414 271.932 207.109 271.768 206.734C271.604 206.348 271.504 205.914 271.469 205.434C271.445 204.953 271.434 204.461 271.434 203.957V187.434C271.434 186.93 271.445 186.438 271.469 185.957C271.504 185.477 271.604 185.049 271.768 184.674C271.932 184.287 272.189 183.977 272.541 183.742C272.904 183.508 273.414 183.391 274.07 183.391H280.961ZM302.16 190.352C302.16 189.227 302.324 188.271 302.652 187.486C302.98 186.689 303.396 186.027 303.9 185.5C304.416 184.973 304.979 184.562 305.588 184.27C306.209 183.965 306.807 183.736 307.381 183.584C307.967 183.432 308.494 183.338 308.963 183.303C309.432 183.268 309.777 183.25 310 183.25H310.598C310.82 183.25 311.166 183.268 311.635 183.303C312.104 183.338 312.625 183.432 313.199 183.584C313.773 183.736 314.365 183.965 314.975 184.27C315.596 184.562 316.152 184.973 316.645 185.5C317.148 186.027 317.559 186.689 317.875 187.486C318.203 188.271 318.367 189.227 318.367 190.352V200.863C318.367 202.023 318.203 203.008 317.875 203.816C317.559 204.625 317.148 205.299 316.645 205.838C316.152 206.377 315.596 206.805 314.975 207.121C314.365 207.426 313.773 207.654 313.199 207.807C312.625 207.959 312.104 208.053 311.635 208.088C311.166 208.123 310.82 208.141 310.598 208.141H310C309.777 208.141 309.432 208.123 308.963 208.088C308.494 208.053 307.967 207.959 307.381 207.807C306.807 207.654 306.209 207.426 305.588 207.121C304.979 206.805 304.416 206.377 303.9 205.838C303.396 205.299 302.98 204.625 302.652 203.816C302.324 203.008 302.16 202.023 302.16 200.863V190.352ZM307.996 201.531C308.02 201.965 308.119 202.346 308.295 202.674C308.447 202.967 308.676 203.23 308.98 203.465C309.297 203.699 309.742 203.816 310.316 203.816C310.879 203.816 311.312 203.699 311.617 203.465C311.922 203.23 312.15 202.967 312.303 202.674C312.467 202.346 312.566 201.965 312.602 201.531V190.07C312.566 189.648 312.467 189.268 312.303 188.928C312.15 188.646 311.922 188.389 311.617 188.154C311.312 187.908 310.879 187.785 310.316 187.785C309.742 187.785 309.297 187.908 308.98 188.154C308.676 188.389 308.447 188.646 308.295 188.928C308.119 189.268 308.02 189.648 307.996 190.07V201.531ZM336.262 200.723H336.684V186.133C336.684 185.758 336.707 185.406 336.754 185.078C336.801 184.738 336.9 184.445 337.053 184.199C337.217 183.953 337.451 183.76 337.756 183.619C338.072 183.467 338.5 183.391 339.039 183.391C339.637 183.391 340.105 183.467 340.445 183.619C340.797 183.76 341.061 183.953 341.236 184.199C341.412 184.445 341.523 184.738 341.57 185.078C341.617 185.406 341.641 185.758 341.641 186.133V203.957C341.641 204.473 341.623 204.971 341.588 205.451C341.564 205.932 341.471 206.365 341.307 206.752C341.154 207.127 340.896 207.432 340.533 207.666C340.182 207.889 339.684 208 339.039 208H336.719C336.168 208 335.705 207.895 335.33 207.684C334.967 207.461 334.662 207.197 334.416 206.893C334.17 206.576 333.971 206.248 333.818 205.908C333.678 205.568 333.566 205.281 333.484 205.047L328.176 190.668H327.754V205.258C327.754 205.633 327.73 205.99 327.684 206.33C327.637 206.658 327.531 206.945 327.367 207.191C327.215 207.438 326.98 207.637 326.664 207.789C326.359 207.93 325.938 208 325.398 208C324.789 208 324.309 207.93 323.957 207.789C323.605 207.637 323.342 207.438 323.166 207.191C322.99 206.945 322.879 206.658 322.832 206.33C322.785 205.99 322.762 205.633 322.762 205.258V187.434C322.762 186.93 322.773 186.438 322.797 185.957C322.832 185.465 322.932 185.031 323.096 184.656C323.26 184.27 323.518 183.965 323.869 183.742C324.232 183.508 324.742 183.391 325.398 183.391H327.719C328.305 183.391 328.779 183.508 329.143 183.742C329.518 183.965 329.822 184.211 330.057 184.48C330.314 184.797 330.52 185.16 330.672 185.57L336.262 200.723ZM366.074 205.082C366.074 206.078 365.822 206.816 365.318 207.297C364.814 207.766 364.105 208 363.191 208C362.254 208 361.533 207.766 361.029 207.297C360.525 206.816 360.273 206.078 360.273 205.082C360.273 204.074 360.525 203.342 361.029 202.885C361.533 202.428 362.254 202.199 363.191 202.199C364.164 202.199 364.885 202.428 365.354 202.885C365.834 203.342 366.074 204.074 366.074 205.082ZM366.039 195.871C366.039 196.867 365.787 197.605 365.283 198.086C364.779 198.555 364.07 198.789 363.156 198.789C362.219 198.789 361.498 198.555 360.994 198.086C360.49 197.605 360.238 196.867 360.238 195.871C360.238 194.863 360.49 194.131 360.994 193.674C361.498 193.217 362.219 192.988 363.156 192.988C364.129 192.988 364.85 193.217 365.318 193.674C365.799 194.131 366.039 194.863 366.039 195.871Z" fill="white"/>
</svg>
