<svg width="455" height="471" viewBox="0 0 455 471" fill="none" xmlns="http://www.w3.org/2000/svg">
<path d="M344.325 146.409C377.934 181.828 410.092 220.467 401.63 249.714C393.167 278.962 343.841 298.549 310.473 328.602C276.864 358.654 259.213 399.171 238.903 401.854C218.592 404.538 195.863 369.655 157.176 339.603C118.489 309.551 64.0857 284.328 48.1273 241.396C32.1689 198.732 55.1393 138.359 93.8263 102.941C132.513 67.5218 186.917 57.3254 231.407 68.0584C276.139 79.0597 310.957 111.259 344.325 146.409Z" fill="#D19342"/>
<path d="M95.125 129.391C96.1914 129.391 97.1816 129.525 98.0957 129.795C99.0215 130.064 99.8242 130.469 100.504 131.008C101.195 131.535 101.734 132.197 102.121 132.994C102.52 133.791 102.719 134.723 102.719 135.789V146.688C102.719 147.602 102.619 148.41 102.42 149.113C102.221 149.805 101.957 150.408 101.629 150.924C101.312 151.428 100.949 151.861 100.539 152.225C100.129 152.576 99.7129 152.863 99.291 153.086C98.2832 153.625 97.1406 153.93 95.8633 154H90.0273C89.3594 154 88.8438 153.889 88.4805 153.666C88.1172 153.432 87.8535 153.127 87.6895 152.752C87.5254 152.365 87.4258 151.932 87.3906 151.451C87.3672 150.971 87.3555 150.473 87.3555 149.957V133.398C87.3555 132.895 87.3672 132.402 87.3906 131.922C87.4258 131.441 87.5254 131.014 87.6895 130.639C87.8535 130.264 88.1172 129.965 88.4805 129.742C88.8438 129.508 89.3594 129.391 90.0273 129.391H95.125ZM92.6992 133.504V149.816H94.9844C95.4883 149.793 95.9395 149.676 96.3379 149.465C96.502 149.383 96.666 149.271 96.8301 149.131C96.9941 148.99 97.1406 148.826 97.2695 148.639C97.3984 148.439 97.498 148.205 97.5684 147.936C97.6504 147.666 97.6914 147.355 97.6914 147.004V136.633C97.6914 136.246 97.6504 135.906 97.5684 135.613C97.498 135.309 97.3984 135.045 97.2695 134.822C97.1406 134.6 96.9941 134.412 96.8301 134.26C96.666 134.107 96.502 133.984 96.3379 133.891C95.9395 133.668 95.4883 133.539 94.9844 133.504H92.6992ZM108.579 136.352C108.579 135.227 108.743 134.271 109.071 133.486C109.399 132.689 109.815 132.027 110.319 131.5C110.834 130.973 111.397 130.562 112.006 130.27C112.627 129.965 113.225 129.736 113.799 129.584C114.385 129.432 114.913 129.338 115.381 129.303C115.85 129.268 116.196 129.25 116.418 129.25H117.016C117.239 129.25 117.584 129.268 118.053 129.303C118.522 129.338 119.043 129.432 119.618 129.584C120.192 129.736 120.784 129.965 121.393 130.27C122.014 130.562 122.571 130.973 123.063 131.5C123.567 132.027 123.977 132.689 124.293 133.486C124.622 134.271 124.786 135.227 124.786 136.352V146.863C124.786 148.023 124.622 149.008 124.293 149.816C123.977 150.625 123.567 151.299 123.063 151.838C122.571 152.377 122.014 152.805 121.393 153.121C120.784 153.426 120.192 153.654 119.618 153.807C119.043 153.959 118.522 154.053 118.053 154.088C117.584 154.123 117.239 154.141 117.016 154.141H116.418C116.196 154.141 115.85 154.123 115.381 154.088C114.913 154.053 114.385 153.959 113.799 153.807C113.225 153.654 112.627 153.426 112.006 153.121C111.397 152.805 110.834 152.377 110.319 151.838C109.815 151.299 109.399 150.625 109.071 149.816C108.743 149.008 108.579 148.023 108.579 146.863V136.352ZM114.415 147.531C114.438 147.965 114.538 148.346 114.713 148.674C114.866 148.967 115.094 149.23 115.399 149.465C115.715 149.699 116.161 149.816 116.735 149.816C117.297 149.816 117.731 149.699 118.036 149.465C118.34 149.23 118.569 148.967 118.721 148.674C118.885 148.346 118.985 147.965 119.02 147.531V136.07C118.985 135.648 118.885 135.268 118.721 134.928C118.569 134.646 118.34 134.389 118.036 134.154C117.731 133.908 117.297 133.785 116.735 133.785C116.161 133.785 115.715 133.908 115.399 134.154C115.094 134.389 114.866 134.646 114.713 134.928C114.538 135.268 114.438 135.648 114.415 136.07V147.531ZM143.899 129.496C144.228 129.496 144.532 129.555 144.813 129.672C145.106 129.789 145.364 129.953 145.587 130.164C145.821 130.363 146.02 130.609 146.185 130.902C146.349 131.184 146.466 131.488 146.536 131.816L149.56 145.844H150.157C150.649 143.559 151.153 141.227 151.669 138.848C152.185 136.457 152.7 134.113 153.216 131.816C153.321 131.371 153.479 130.967 153.69 130.604C153.878 130.299 154.136 130.023 154.464 129.777C154.804 129.52 155.243 129.391 155.782 129.391C156.192 129.391 156.55 129.467 156.854 129.619C157.171 129.76 157.429 129.947 157.628 130.182C157.839 130.404 157.991 130.65 158.085 130.92C158.19 131.189 158.243 131.453 158.243 131.711C158.243 131.852 158.237 131.986 158.226 132.115C158.214 132.244 158.196 132.355 158.173 132.449C158.149 132.566 158.126 132.672 158.103 132.766L153.286 151.891C153.11 152.289 152.876 152.641 152.583 152.945C152.337 153.215 152.015 153.461 151.616 153.684C151.229 153.895 150.743 154 150.157 154H149.56C148.974 154 148.493 153.895 148.118 153.684C147.743 153.461 147.444 153.215 147.222 152.945C146.964 152.641 146.77 152.289 146.642 151.891L144.181 141.59H143.583C143.208 143.254 142.804 144.971 142.37 146.74C141.948 148.51 141.544 150.227 141.157 151.891C141.005 152.289 140.8 152.641 140.542 152.945C140.308 153.215 140.003 153.461 139.628 153.684C139.265 153.895 138.79 154 138.204 154H137.606C137.02 154 136.522 153.895 136.112 153.684C135.714 153.461 135.386 153.215 135.128 152.945C134.823 152.641 134.583 152.289 134.407 151.891L129.661 132.766C129.638 132.672 129.614 132.566 129.591 132.449C129.567 132.355 129.55 132.244 129.538 132.115C129.526 131.986 129.52 131.852 129.52 131.711C129.52 131.453 129.567 131.189 129.661 130.92C129.767 130.65 129.919 130.404 130.118 130.182C130.329 129.947 130.587 129.76 130.892 129.619C131.208 129.467 131.571 129.391 131.981 129.391C132.52 129.391 132.954 129.52 133.282 129.777C133.622 130.023 133.886 130.299 134.073 130.604C134.284 130.967 134.442 131.371 134.548 131.816L137.606 145.844H138.204C138.427 144.766 138.667 143.635 138.925 142.451C139.183 141.256 139.44 140.055 139.698 138.848C139.968 137.629 140.231 136.428 140.489 135.244C140.759 134.049 141.017 132.906 141.263 131.816C141.427 131.148 141.743 130.598 142.212 130.164C142.681 129.719 143.243 129.496 143.899 129.496ZM177.005 146.723H177.427V132.133C177.427 131.758 177.451 131.406 177.497 131.078C177.544 130.738 177.644 130.445 177.796 130.199C177.96 129.953 178.195 129.76 178.499 129.619C178.816 129.467 179.244 129.391 179.783 129.391C180.38 129.391 180.849 129.467 181.189 129.619C181.54 129.76 181.804 129.953 181.98 130.199C182.156 130.445 182.267 130.738 182.314 131.078C182.361 131.406 182.384 131.758 182.384 132.133V149.957C182.384 150.473 182.367 150.971 182.331 151.451C182.308 151.932 182.214 152.365 182.05 152.752C181.898 153.127 181.64 153.432 181.277 153.666C180.925 153.889 180.427 154 179.783 154H177.462C176.912 154 176.449 153.895 176.074 153.684C175.71 153.461 175.406 153.197 175.16 152.893C174.914 152.576 174.714 152.248 174.562 151.908C174.421 151.568 174.31 151.281 174.228 151.047L168.919 136.668H168.497V151.258C168.497 151.633 168.474 151.99 168.427 152.33C168.38 152.658 168.275 152.945 168.111 153.191C167.958 153.438 167.724 153.637 167.408 153.789C167.103 153.93 166.681 154 166.142 154C165.533 154 165.052 153.93 164.701 153.789C164.349 153.637 164.085 153.438 163.91 153.191C163.734 152.945 163.622 152.658 163.576 152.33C163.529 151.99 163.505 151.633 163.505 151.258V133.434C163.505 132.93 163.517 132.438 163.54 131.957C163.576 131.465 163.675 131.031 163.839 130.656C164.003 130.27 164.261 129.965 164.613 129.742C164.976 129.508 165.486 129.391 166.142 129.391H168.462C169.048 129.391 169.523 129.508 169.886 129.742C170.261 129.965 170.566 130.211 170.8 130.48C171.058 130.797 171.263 131.16 171.415 131.57L177.005 146.723ZM190.459 133.434C190.459 132.93 190.482 132.438 190.529 131.957C190.576 131.477 190.687 131.049 190.863 130.674C191.051 130.287 191.32 129.977 191.672 129.742C192.023 129.508 192.51 129.391 193.131 129.391C193.799 129.391 194.32 129.508 194.695 129.742C195.07 129.977 195.346 130.287 195.521 130.674C195.697 131.049 195.803 131.477 195.838 131.957C195.885 132.438 195.908 132.93 195.908 133.434V148.832H199.353C199.834 148.832 200.309 148.855 200.777 148.902C201.246 148.949 201.662 149.061 202.025 149.236C202.4 149.412 202.699 149.67 202.922 150.01C203.144 150.35 203.256 150.812 203.256 151.398C203.256 151.996 203.144 152.471 202.922 152.822C202.699 153.162 202.4 153.42 202.025 153.596C201.662 153.771 201.246 153.883 200.777 153.93C200.309 153.977 199.834 154 199.353 154H194.361C193.74 154 193.189 153.977 192.709 153.93C192.228 153.883 191.818 153.771 191.478 153.596C191.15 153.42 190.898 153.162 190.723 152.822C190.547 152.471 190.459 151.996 190.459 151.398V133.434ZM208.694 136.352C208.694 135.227 208.858 134.271 209.186 133.486C209.514 132.689 209.93 132.027 210.434 131.5C210.95 130.973 211.512 130.562 212.121 130.27C212.743 129.965 213.34 129.736 213.914 129.584C214.5 129.432 215.028 129.338 215.496 129.303C215.965 129.268 216.311 129.25 216.534 129.25H217.131C217.354 129.25 217.7 129.268 218.168 129.303C218.637 129.338 219.159 129.432 219.733 129.584C220.307 129.736 220.899 129.965 221.508 130.27C222.129 130.562 222.686 130.973 223.178 131.5C223.682 132.027 224.092 132.689 224.409 133.486C224.737 134.271 224.901 135.227 224.901 136.352V146.863C224.901 148.023 224.737 149.008 224.409 149.816C224.092 150.625 223.682 151.299 223.178 151.838C222.686 152.377 222.129 152.805 221.508 153.121C220.899 153.426 220.307 153.654 219.733 153.807C219.159 153.959 218.637 154.053 218.168 154.088C217.7 154.123 217.354 154.141 217.131 154.141H216.534C216.311 154.141 215.965 154.123 215.496 154.088C215.028 154.053 214.5 153.959 213.914 153.807C213.34 153.654 212.743 153.426 212.121 153.121C211.512 152.805 210.95 152.377 210.434 151.838C209.93 151.299 209.514 150.625 209.186 149.816C208.858 149.008 208.694 148.023 208.694 146.863V136.352ZM214.53 147.531C214.553 147.965 214.653 148.346 214.829 148.674C214.981 148.967 215.209 149.23 215.514 149.465C215.83 149.699 216.276 149.816 216.85 149.816C217.412 149.816 217.846 149.699 218.151 149.465C218.455 149.23 218.684 148.967 218.836 148.674C219 148.346 219.1 147.965 219.135 147.531V136.07C219.1 135.648 219 135.268 218.836 134.928C218.684 134.646 218.455 134.389 218.151 134.154C217.846 133.908 217.412 133.785 216.85 133.785C216.276 133.785 215.83 133.908 215.514 134.154C215.209 134.389 214.981 134.646 214.829 134.928C214.653 135.268 214.553 135.648 214.53 136.07V147.531ZM236.14 143.383H241.729L239.128 133.961H238.741L236.14 143.383ZM247.179 145.105C247.202 145.902 247.231 146.717 247.266 147.549C247.302 148.381 247.319 149.184 247.319 149.957V150.484C247.319 150.93 247.302 151.363 247.266 151.785C247.243 152.195 247.155 152.57 247.003 152.91C246.85 153.238 246.61 153.502 246.282 153.701C245.954 153.9 245.491 154 244.893 154C244.284 154 243.815 153.9 243.487 153.701C243.159 153.502 242.913 153.238 242.749 152.91C242.597 152.582 242.503 152.207 242.468 151.785C242.444 151.363 242.432 150.93 242.432 150.484V148.023H235.401V150.484C235.401 150.93 235.384 151.363 235.349 151.785C235.325 152.207 235.231 152.582 235.067 152.91C234.915 153.238 234.675 153.502 234.347 153.701C234.018 153.9 233.55 154 232.94 154C232.331 154 231.862 153.9 231.534 153.701C231.206 153.502 230.966 153.238 230.813 152.91C230.661 152.57 230.573 152.195 230.55 151.785C230.526 151.363 230.515 150.93 230.515 150.484V149.957C230.515 149.594 230.515 149.207 230.515 148.797C230.526 148.387 230.538 147.971 230.55 147.549C230.561 147.127 230.573 146.711 230.585 146.301C230.597 145.879 230.608 145.48 230.62 145.105C231.206 143.066 231.821 141.004 232.466 138.918C233.11 136.82 233.725 134.746 234.311 132.695C234.429 132.262 234.569 131.846 234.733 131.447C234.897 131.037 235.114 130.686 235.384 130.393C235.653 130.088 235.999 129.848 236.421 129.672C236.843 129.484 237.382 129.391 238.038 129.391H239.796C240.44 129.391 240.974 129.484 241.395 129.672C241.829 129.848 242.181 130.088 242.45 130.393C242.72 130.686 242.931 131.037 243.083 131.447C243.247 131.846 243.393 132.262 243.522 132.695L247.179 145.105ZM261.265 129.391C262.331 129.391 263.322 129.525 264.236 129.795C265.161 130.064 265.964 130.469 266.644 131.008C267.335 131.535 267.874 132.197 268.261 132.994C268.66 133.791 268.859 134.723 268.859 135.789V146.688C268.859 147.602 268.759 148.41 268.56 149.113C268.361 149.805 268.097 150.408 267.769 150.924C267.452 151.428 267.089 151.861 266.679 152.225C266.269 152.576 265.853 152.863 265.431 153.086C264.423 153.625 263.281 153.93 262.003 154H256.167C255.499 154 254.984 153.889 254.62 153.666C254.257 153.432 253.994 153.127 253.829 152.752C253.665 152.365 253.566 151.932 253.531 151.451C253.507 150.971 253.495 150.473 253.495 149.957V133.398C253.495 132.895 253.507 132.402 253.531 131.922C253.566 131.441 253.665 131.014 253.829 130.639C253.994 130.264 254.257 129.965 254.62 129.742C254.984 129.508 255.499 129.391 256.167 129.391H261.265ZM258.839 133.504V149.816H261.124C261.628 149.793 262.079 149.676 262.478 149.465C262.642 149.383 262.806 149.271 262.97 149.131C263.134 148.99 263.281 148.826 263.41 148.639C263.538 148.439 263.638 148.205 263.708 147.936C263.79 147.666 263.831 147.355 263.831 147.004V136.633C263.831 136.246 263.79 135.906 263.708 135.613C263.638 135.309 263.538 135.045 263.41 134.822C263.281 134.6 263.134 134.412 262.97 134.26C262.806 134.107 262.642 133.984 262.478 133.891C262.079 133.668 261.628 133.539 261.124 133.504H258.839ZM98.7812 193.305C98.4414 193.305 98.1484 193.24 97.9023 193.111C97.668 192.982 97.4629 192.818 97.2871 192.619C97.1113 192.42 96.959 192.197 96.8301 191.951C96.7129 191.705 96.6133 191.465 96.5312 191.23L93.1914 181.598H92.7344V196.258C92.7344 196.633 92.7109 196.984 92.6641 197.312C92.6172 197.641 92.5117 197.934 92.3477 198.191C92.1953 198.438 91.9609 198.637 91.6445 198.789C91.3398 198.93 90.918 199 90.3789 199C89.7695 199 89.2891 198.93 88.9375 198.789C88.5859 198.637 88.3223 198.438 88.1465 198.191C87.9707 197.934 87.8594 197.641 87.8125 197.312C87.7656 196.984 87.7422 196.633 87.7422 196.258V178.398C87.7422 177.895 87.7539 177.402 87.7773 176.922C87.8125 176.441 87.9121 176.014 88.0762 175.639C88.2402 175.264 88.498 174.965 88.8496 174.742C89.2129 174.508 89.7227 174.391 90.3789 174.391H92.7695C93.168 174.391 93.502 174.408 93.7715 174.443C94.0527 174.467 94.3105 174.566 94.5449 174.742C94.7793 174.906 95.0078 175.176 95.2305 175.551C95.4648 175.926 95.7168 176.459 95.9863 177.15C96.2676 177.83 96.5898 178.703 96.9531 179.77C97.3164 180.824 97.7617 182.125 98.2891 183.672L98.7461 185.078H99.168L99.7305 183.32C100.211 181.844 100.621 180.596 100.961 179.576C101.301 178.557 101.6 177.719 101.857 177.062C102.115 176.395 102.344 175.885 102.543 175.533C102.754 175.17 102.971 174.906 103.193 174.742C103.428 174.566 103.68 174.467 103.949 174.443C104.219 174.408 104.547 174.391 104.934 174.391H107.5C108.156 174.391 108.66 174.508 109.012 174.742C109.375 174.965 109.639 175.264 109.803 175.639C109.967 176.014 110.061 176.441 110.084 176.922C110.119 177.402 110.137 177.895 110.137 178.398V196.258C110.137 196.633 110.113 196.984 110.066 197.312C110.02 197.641 109.908 197.934 109.732 198.191C109.557 198.438 109.293 198.637 108.941 198.789C108.59 198.93 108.109 199 107.5 199C106.961 199 106.533 198.93 106.217 198.789C105.912 198.637 105.678 198.438 105.514 198.191C105.361 197.934 105.262 197.641 105.215 197.312C105.168 196.984 105.145 196.633 105.145 196.258V181.598H104.652L101.348 191.23C101.254 191.465 101.148 191.705 101.031 191.951C100.914 192.197 100.768 192.42 100.592 192.619C100.416 192.818 100.211 192.982 99.9766 193.111C99.7422 193.24 99.4609 193.305 99.1328 193.305H98.7812ZM127.036 195.027C127.036 195.52 127.012 196.006 126.965 196.486C126.918 196.955 126.807 197.377 126.631 197.752C126.456 198.127 126.192 198.432 125.84 198.666C125.489 198.889 125.008 199 124.399 199C123.778 199 123.291 198.889 122.94 198.666C122.588 198.432 122.319 198.127 122.131 197.752C121.956 197.377 121.844 196.955 121.797 196.486C121.75 196.006 121.727 195.52 121.727 195.027V188.91L116.489 179.559C116.208 179.066 115.938 178.586 115.68 178.117C115.422 177.637 115.293 177.156 115.293 176.676C115.293 176.359 115.381 176.043 115.557 175.727C115.745 175.398 116.079 175.094 116.559 174.812C117.086 174.531 117.579 174.391 118.036 174.391C118.387 174.391 118.704 174.473 118.985 174.637C119.278 174.789 119.541 174.994 119.776 175.252C120.01 175.51 120.221 175.803 120.409 176.131C120.596 176.447 120.766 176.77 120.918 177.098L124.118 183.812H124.68L127.879 177.098C128.032 176.77 128.202 176.447 128.389 176.131C128.577 175.803 128.788 175.51 129.022 175.252C129.256 174.994 129.514 174.789 129.795 174.637C130.088 174.473 130.411 174.391 130.762 174.391C131.008 174.391 131.249 174.426 131.483 174.496C131.717 174.566 131.969 174.672 132.239 174.812C132.696 175.094 133.018 175.398 133.206 175.727C133.405 176.043 133.504 176.359 133.504 176.676C133.504 176.887 133.411 177.232 133.223 177.713C133.036 178.182 132.731 178.797 132.309 179.559L127.036 188.91V195.027ZM152.161 178.398C152.161 177.895 152.173 177.402 152.196 176.922C152.231 176.441 152.331 176.014 152.495 175.639C152.659 175.264 152.917 174.965 153.269 174.742C153.632 174.508 154.142 174.391 154.798 174.391H160.599C162.04 174.461 163.329 174.766 164.466 175.305C164.946 175.539 165.415 175.832 165.872 176.184C166.341 176.523 166.757 176.951 167.12 177.467C167.483 177.971 167.776 178.568 167.999 179.26C168.222 179.951 168.333 180.754 168.333 181.668C168.333 181.855 168.315 182.107 168.28 182.424C168.245 182.729 168.169 183.068 168.052 183.443C167.935 183.807 167.776 184.188 167.577 184.586C167.378 184.984 167.114 185.365 166.786 185.729C166.458 186.092 166.054 186.426 165.573 186.73C165.104 187.035 164.548 187.281 163.903 187.469C164.313 187.633 164.729 187.85 165.151 188.119C165.573 188.377 165.954 188.711 166.294 189.121C166.634 189.531 166.909 190.023 167.12 190.598C167.343 191.172 167.454 191.84 167.454 192.602V195.098C167.454 195.238 167.489 195.355 167.56 195.449C167.63 195.543 167.7 195.625 167.77 195.695C168.052 195.977 168.216 196.223 168.263 196.434C168.31 196.633 168.333 196.797 168.333 196.926C168.333 197.336 168.251 197.682 168.087 197.963C167.923 198.244 167.706 198.473 167.436 198.648C167.179 198.824 166.88 198.947 166.54 199.018C166.212 199.1 165.872 199.141 165.52 199.141C165.134 199.141 164.741 199.082 164.343 198.965C163.944 198.836 163.581 198.654 163.253 198.42C162.925 198.186 162.655 197.893 162.444 197.541C162.245 197.189 162.145 196.785 162.145 196.328V192.602C162.145 192.086 162.11 191.611 162.04 191.178C161.97 190.744 161.835 190.369 161.636 190.053C161.436 189.736 161.161 189.49 160.81 189.314C160.458 189.139 160.001 189.051 159.438 189.051H157.47V194.922C157.47 195.438 157.452 195.941 157.417 196.434C157.394 196.926 157.3 197.365 157.136 197.752C156.972 198.127 156.708 198.432 156.345 198.666C155.981 198.889 155.466 199 154.798 199C154.142 199 153.632 198.889 153.269 198.666C152.917 198.432 152.659 198.127 152.495 197.752C152.331 197.365 152.231 196.926 152.196 196.434C152.173 195.941 152.161 195.438 152.161 194.922V178.398ZM159.86 185.113C160.446 185.09 160.974 184.949 161.442 184.691C161.642 184.586 161.835 184.451 162.022 184.287C162.21 184.123 162.38 183.918 162.532 183.672C162.685 183.426 162.802 183.139 162.884 182.811C162.978 182.482 163.024 182.102 163.024 181.668C163.024 181.281 162.978 180.941 162.884 180.648C162.802 180.344 162.69 180.08 162.55 179.857C162.409 179.635 162.245 179.447 162.058 179.295C161.882 179.143 161.7 179.02 161.513 178.926C161.067 178.703 160.563 178.574 160.001 178.539H157.47V185.113H159.86ZM184.247 174.391C184.716 174.391 185.191 174.408 185.671 174.443C186.152 174.479 186.585 174.578 186.972 174.742C187.359 174.906 187.675 175.158 187.921 175.498C188.167 175.826 188.29 176.289 188.29 176.887C188.29 177.484 188.167 177.953 187.921 178.293C187.675 178.621 187.359 178.867 186.972 179.031C186.585 179.195 186.152 179.295 185.671 179.33C185.191 179.365 184.716 179.383 184.247 179.383H180.064V184.164H182.279C182.747 184.164 183.216 184.182 183.685 184.217C184.165 184.24 184.587 184.334 184.951 184.498C185.326 184.65 185.63 184.891 185.865 185.219C186.099 185.535 186.216 185.98 186.216 186.555C186.216 187.141 186.099 187.592 185.865 187.908C185.63 188.225 185.326 188.465 184.951 188.629C184.587 188.781 184.165 188.875 183.685 188.91C183.216 188.934 182.747 188.945 182.279 188.945H180.064V194.008H184.247C184.716 194.008 185.191 194.025 185.671 194.061C186.152 194.096 186.585 194.195 186.972 194.359C187.359 194.512 187.675 194.758 187.921 195.098C188.167 195.426 188.29 195.883 188.29 196.469C188.29 197.078 188.162 197.553 187.904 197.893C187.658 198.232 187.341 198.484 186.955 198.648C186.568 198.812 186.134 198.912 185.654 198.947C185.173 198.982 184.705 199 184.247 199H177.357C176.701 199 176.191 198.883 175.828 198.648C175.476 198.414 175.218 198.109 175.054 197.734C174.89 197.348 174.79 196.914 174.755 196.434C174.732 195.953 174.72 195.461 174.72 194.957V178.434C174.72 177.93 174.732 177.438 174.755 176.957C174.79 176.477 174.89 176.049 175.054 175.674C175.218 175.287 175.476 174.977 175.828 174.742C176.191 174.508 176.701 174.391 177.357 174.391H184.247ZM199.107 180.578C199.119 181.07 199.26 181.516 199.529 181.914C199.81 182.301 200.174 182.67 200.619 183.021C201.076 183.373 201.592 183.719 202.166 184.059C202.74 184.387 203.326 184.738 203.924 185.113C204.533 185.477 205.125 185.875 205.699 186.309C206.273 186.742 206.789 187.234 207.246 187.785C207.703 188.336 208.072 188.957 208.353 189.648C208.635 190.34 208.787 191.125 208.81 192.004V192.145C208.81 193.105 208.693 193.943 208.459 194.658C208.225 195.373 207.914 195.988 207.527 196.504C207.141 197.02 206.689 197.447 206.174 197.787C205.658 198.115 205.113 198.379 204.539 198.578C203.976 198.777 203.402 198.918 202.816 199C202.242 199.082 201.697 199.129 201.182 199.141H201.006C200.01 199.141 199.137 199.041 198.387 198.842C197.637 198.643 196.992 198.379 196.453 198.051C195.914 197.711 195.463 197.324 195.1 196.891C194.748 196.457 194.467 196.012 194.256 195.555C194.045 195.086 193.893 194.623 193.799 194.166C193.705 193.709 193.658 193.281 193.658 192.883C193.658 192.473 193.728 192.115 193.869 191.811C194.01 191.506 194.191 191.26 194.414 191.072C194.648 190.873 194.912 190.727 195.205 190.633C195.51 190.539 195.826 190.492 196.154 190.492C196.459 190.492 196.769 190.539 197.086 190.633C197.414 190.727 197.707 190.873 197.965 191.072C198.234 191.26 198.451 191.506 198.615 191.811C198.791 192.104 198.885 192.449 198.896 192.848C198.92 193.727 199.119 194.33 199.494 194.658C199.869 194.975 200.408 195.133 201.111 195.133C201.463 195.121 201.785 195.08 202.078 195.01C202.383 194.928 202.641 194.793 202.851 194.605C203.062 194.406 203.226 194.148 203.344 193.832C203.473 193.504 203.537 193.094 203.537 192.602C203.537 191.992 203.396 191.441 203.115 190.949C202.846 190.457 202.488 190 202.043 189.578C201.598 189.156 201.088 188.758 200.514 188.383C199.939 187.996 199.353 187.615 198.756 187.24C198.158 186.854 197.572 186.455 196.998 186.045C196.435 185.623 195.926 185.166 195.469 184.674C195.012 184.182 194.643 183.637 194.361 183.039C194.092 182.441 193.951 181.762 193.939 181V180.719C193.951 179.465 194.115 178.422 194.432 177.59C194.76 176.758 195.234 176.096 195.855 175.604C196.488 175.111 197.262 174.766 198.176 174.566C199.09 174.355 200.139 174.25 201.322 174.25H201.779C202.857 174.25 203.771 174.367 204.521 174.602C205.271 174.836 205.893 175.135 206.385 175.498C206.889 175.861 207.281 176.271 207.562 176.729C207.855 177.186 208.072 177.637 208.213 178.082C208.353 178.527 208.441 178.943 208.476 179.33C208.512 179.717 208.529 180.027 208.529 180.262C208.529 180.613 208.459 180.936 208.318 181.229C208.189 181.51 208.008 181.75 207.773 181.949C207.551 182.148 207.281 182.307 206.965 182.424C206.66 182.529 206.326 182.582 205.963 182.582C205.682 182.582 205.4 182.529 205.119 182.424C204.838 182.307 204.586 182.16 204.363 181.984C204.141 181.809 203.959 181.609 203.818 181.387C203.678 181.152 203.607 180.918 203.607 180.684C203.607 179.723 203.432 179.055 203.08 178.68C202.74 178.305 202.236 178.117 201.568 178.117C201.252 178.117 200.941 178.135 200.637 178.17C200.344 178.205 200.08 178.305 199.846 178.469C199.623 178.621 199.441 178.861 199.301 179.189C199.172 179.518 199.107 179.98 199.107 180.578ZM214.952 178.398C214.952 177.895 214.975 177.402 215.022 176.922C215.08 176.441 215.204 176.014 215.391 175.639C215.59 175.264 215.883 174.965 216.27 174.742C216.657 174.508 217.19 174.391 217.87 174.391C218.549 174.391 219.082 174.508 219.469 174.742C219.868 174.965 220.161 175.264 220.348 175.639C220.547 176.014 220.67 176.441 220.717 176.922C220.764 177.402 220.787 177.895 220.787 178.398V192.25C220.823 192.766 220.928 193.223 221.104 193.621C221.174 193.797 221.268 193.967 221.385 194.131C221.502 194.295 221.637 194.441 221.789 194.57C221.954 194.699 222.141 194.805 222.352 194.887C222.575 194.957 222.827 194.992 223.108 194.992C223.389 194.992 223.641 194.957 223.864 194.887C224.086 194.805 224.274 194.699 224.426 194.57C224.59 194.441 224.731 194.295 224.848 194.131C224.965 193.967 225.059 193.797 225.129 193.621C225.305 193.223 225.405 192.766 225.428 192.25V178.398C225.428 177.895 225.452 177.402 225.498 176.922C225.545 176.441 225.662 176.014 225.85 175.639C226.049 175.264 226.342 174.965 226.729 174.742C227.116 174.508 227.655 174.391 228.346 174.391C229.026 174.391 229.559 174.508 229.946 174.742C230.332 174.965 230.62 175.264 230.807 175.639C231.006 176.014 231.129 176.441 231.176 176.922C231.235 177.402 231.264 177.895 231.264 178.398V191.793C231.264 193.012 231.065 194.078 230.666 194.992C230.28 195.906 229.723 196.674 228.996 197.295C228.282 197.904 227.42 198.367 226.412 198.684C225.416 198.988 224.315 199.141 223.108 199.141C221.889 199.141 220.782 198.982 219.786 198.666C218.789 198.338 217.928 197.863 217.202 197.242C216.487 196.621 215.93 195.854 215.532 194.939C215.145 194.025 214.952 192.977 214.952 191.793V178.398ZM249.991 193.305C249.651 193.305 249.358 193.24 249.112 193.111C248.878 192.982 248.673 192.818 248.497 192.619C248.321 192.42 248.169 192.197 248.04 191.951C247.923 191.705 247.823 191.465 247.741 191.23L244.401 181.598H243.944V196.258C243.944 196.633 243.921 196.984 243.874 197.312C243.827 197.641 243.722 197.934 243.557 198.191C243.405 198.438 243.171 198.637 242.854 198.789C242.55 198.93 242.128 199 241.589 199C240.979 199 240.499 198.93 240.147 198.789C239.796 198.637 239.532 198.438 239.356 198.191C239.181 197.934 239.069 197.641 239.022 197.312C238.975 196.984 238.952 196.633 238.952 196.258V178.398C238.952 177.895 238.964 177.402 238.987 176.922C239.022 176.441 239.122 176.014 239.286 175.639C239.45 175.264 239.708 174.965 240.059 174.742C240.423 174.508 240.932 174.391 241.589 174.391H243.979C244.378 174.391 244.712 174.408 244.981 174.443C245.263 174.467 245.52 174.566 245.755 174.742C245.989 174.906 246.218 175.176 246.44 175.551C246.675 175.926 246.927 176.459 247.196 177.15C247.477 177.83 247.8 178.703 248.163 179.77C248.526 180.824 248.972 182.125 249.499 183.672L249.956 185.078H250.378L250.94 183.32C251.421 181.844 251.831 180.596 252.171 179.576C252.511 178.557 252.809 177.719 253.067 177.062C253.325 176.395 253.554 175.885 253.753 175.533C253.964 175.17 254.181 174.906 254.403 174.742C254.638 174.566 254.89 174.467 255.159 174.443C255.429 174.408 255.757 174.391 256.143 174.391H258.71C259.366 174.391 259.87 174.508 260.222 174.742C260.585 174.965 260.849 175.264 261.013 175.639C261.177 176.014 261.27 176.441 261.294 176.922C261.329 177.402 261.347 177.895 261.347 178.398V196.258C261.347 196.633 261.323 196.984 261.276 197.312C261.229 197.641 261.118 197.934 260.942 198.191C260.766 198.438 260.503 198.637 260.151 198.789C259.8 198.93 259.319 199 258.71 199C258.171 199 257.743 198.93 257.427 198.789C257.122 198.637 256.888 198.438 256.724 198.191C256.571 197.934 256.472 197.641 256.425 197.312C256.378 196.984 256.354 196.633 256.354 196.258V181.598H255.862L252.557 191.23C252.464 191.465 252.358 191.705 252.241 191.951C252.124 192.197 251.977 192.42 251.802 192.619C251.626 192.818 251.421 192.982 251.186 193.111C250.952 193.24 250.671 193.305 250.343 193.305H249.991ZM278.738 174.391C279.206 174.391 279.681 174.408 280.161 174.443C280.642 174.479 281.076 174.578 281.462 174.742C281.849 174.906 282.165 175.158 282.411 175.498C282.658 175.826 282.781 176.289 282.781 176.887C282.781 177.484 282.658 177.953 282.411 178.293C282.165 178.621 281.849 178.867 281.462 179.031C281.076 179.195 280.642 179.295 280.161 179.33C279.681 179.365 279.206 179.383 278.738 179.383H274.554V184.164H276.769C277.238 184.164 277.706 184.182 278.175 184.217C278.656 184.24 279.077 184.334 279.441 184.498C279.816 184.65 280.12 184.891 280.355 185.219C280.589 185.535 280.706 185.98 280.706 186.555C280.706 187.141 280.589 187.592 280.355 187.908C280.12 188.225 279.816 188.465 279.441 188.629C279.077 188.781 278.656 188.875 278.175 188.91C277.706 188.934 277.238 188.945 276.769 188.945H274.554V194.008H278.738C279.206 194.008 279.681 194.025 280.161 194.061C280.642 194.096 281.076 194.195 281.462 194.359C281.849 194.512 282.165 194.758 282.411 195.098C282.658 195.426 282.781 195.883 282.781 196.469C282.781 197.078 282.652 197.553 282.394 197.893C282.148 198.232 281.831 198.484 281.445 198.648C281.058 198.812 280.624 198.912 280.144 198.947C279.663 198.982 279.195 199 278.738 199H271.847C271.191 199 270.681 198.883 270.318 198.648C269.966 198.414 269.708 198.109 269.544 197.734C269.38 197.348 269.281 196.914 269.245 196.434C269.222 195.953 269.21 195.461 269.21 194.957V178.434C269.21 177.93 269.222 177.438 269.245 176.957C269.281 176.477 269.38 176.049 269.544 175.674C269.708 175.287 269.966 174.977 270.318 174.742C270.681 174.508 271.191 174.391 271.847 174.391H278.738ZM311.129 196.082C311.129 197.078 310.877 197.816 310.373 198.297C309.869 198.766 309.16 199 308.246 199C307.309 199 306.588 198.766 306.084 198.297C305.58 197.816 305.328 197.078 305.328 196.082C305.328 195.074 305.58 194.342 306.084 193.885C306.588 193.428 307.309 193.199 308.246 193.199C309.219 193.199 309.94 193.428 310.409 193.885C310.889 194.342 311.129 195.074 311.129 196.082ZM311.094 186.871C311.094 187.867 310.842 188.605 310.338 189.086C309.834 189.555 309.125 189.789 308.211 189.789C307.274 189.789 306.553 189.555 306.049 189.086C305.545 188.605 305.293 187.867 305.293 186.871C305.293 185.863 305.545 185.131 306.049 184.674C306.553 184.217 307.274 183.988 308.211 183.988C309.184 183.988 309.905 184.217 310.373 184.674C310.854 185.131 311.094 185.863 311.094 186.871Z" fill="#FFFDFD"/>
</svg>
