<svg width="267" height="29" viewBox="0 0 267 29" fill="none" xmlns="http://www.w3.org/2000/svg">
<g style="mix-blend-mode:color-burn" opacity="0.82" filter="url(#filter0_d)">
<path d="M21.8314 0.456L15.2234 13.196V20H11.3034V13.196L4.66738 0.456H9.09138L13.2914 9.388L17.4634 0.456H21.8314ZM36.0762 16.276H28.2922L27.0042 20H22.8882L29.9162 0.427998H34.4802L41.5082 20H37.3642L36.0762 16.276ZM35.0122 13.14L32.1842 4.964L29.3562 13.14H35.0122ZM60.3471 0.456V20H56.4271V11.684H48.0551V20H44.1351V0.456H48.0551V8.492H56.4271V0.456H60.3471ZM79.7454 0.456L73.1374 13.196V20H69.2174V13.196L62.5814 0.456H67.0054L71.2054 9.388L75.3774 0.456H79.7454ZM93.9902 16.276H86.2062L84.9182 20H80.8022L87.8302 0.427998H92.3942L99.4222 20H95.2782L93.9902 16.276ZM92.9262 13.14L90.0982 4.964L87.2702 13.14H92.9262ZM120.117 0.456V14.176C120.117 16.08 119.566 17.564 118.465 18.628C117.364 19.6733 115.889 20.196 114.041 20.196C112.174 20.196 110.662 19.6547 109.505 18.572C108.366 17.4893 107.797 15.9773 107.797 14.036H111.717C111.736 14.876 111.932 15.5293 112.305 15.996C112.697 16.4627 113.257 16.696 113.985 16.696C114.694 16.696 115.236 16.472 115.609 16.024C115.982 15.576 116.169 14.96 116.169 14.176V0.456H120.117ZM136.674 16.276H128.89L127.602 20H123.486L130.514 0.427998H135.078L142.106 20H137.962L136.674 16.276ZM135.61 13.14L132.782 4.964L129.954 13.14H135.61ZM166.041 0.456V20H162.121V7.288L156.885 20H153.917L148.653 7.288V20H144.733V0.456H149.185L155.401 14.988L161.617 0.456H166.041ZM181.9 16.276H174.116L172.828 20H168.712L175.74 0.427998H180.304L187.332 20H183.188L181.9 16.276ZM180.836 13.14L178.008 4.964L175.18 13.14H180.836ZM193.879 16.892H200.319V20H189.959V0.456H193.879V16.892ZM209.643 0.456C211.696 0.456 213.498 0.857333 215.047 1.66C216.615 2.46267 217.819 3.61067 218.659 5.104C219.518 6.57867 219.947 8.296 219.947 10.256C219.947 12.216 219.518 13.9333 218.659 15.408C217.819 16.864 216.615 17.9933 215.047 18.796C213.498 19.5987 211.696 20 209.643 20H202.811V0.456H209.643ZM209.503 16.668C211.556 16.668 213.143 16.108 214.263 14.988C215.383 13.868 215.943 12.2907 215.943 10.256C215.943 8.22133 215.383 6.63467 214.263 5.496C213.143 4.33867 211.556 3.76 209.503 3.76H206.731V16.668H209.503ZM226.801 0.456V20H222.881V0.456H226.801ZM247.39 20H243.47L234.594 6.588V20H230.674V0.427998H234.594L243.47 13.868V0.427998H247.39V20ZM255.184 3.62V8.52H261.764V11.628H255.184V16.808H262.604V20H251.264V0.427998H262.604V3.62H255.184Z" fill="#1C1A1A"/>
</g>
<defs>
<filter id="filter0_d" x="0.667358" y="0.428009" width="265.937" height="27.768" filterUnits="userSpaceOnUse" color-interpolation-filters="sRGB">
<feFlood flood-opacity="0" result="BackgroundImageFix"/>
<feColorMatrix in="SourceAlpha" type="matrix" values="0 0 0 0 0 0 0 0 0 0 0 0 0 0 0 0 0 0 127 0" result="hardAlpha"/>
<feOffset dy="4"/>
<feGaussianBlur stdDeviation="2"/>
<feComposite in2="hardAlpha" operator="out"/>
<feColorMatrix type="matrix" values="0 0 0 0 0 0 0 0 0 0 0 0 0 0 0 0 0 0 0.25 0"/>
<feBlend mode="normal" in2="BackgroundImageFix" result="effect1_dropShadow"/>
<feBlend mode="normal" in="SourceGraphic" in2="effect1_dropShadow" result="shape"/>
</filter>
</defs>
</svg>
